<svg xmlns="http://www.w3.org/2000/svg" width="324.62268938882056" height="220.05000000000004" viewBox="0 0 324.62268938882056 220.05000000000004"><defs id="SvgjsDefs4483"/><g id="SvgjsG4484" featurekey="rootContainer" transform="matrix(2.7960610389709473,0,0,2.7960610389709473,0,0)" fill="#111111"><path xmlns="http://www.w3.org/2000/svg" d="M116.1 78.7H0V0h116.1zM2 76.7h112.1V2H2z"/></g><g id="SvgjsG4485" featurekey="monogramFeature-0" transform="matrix(3.933497905731201,0,0,3.933497905731201,68.24818486431482,-84.04872687932804)" fill="#e84545"><path d="M-1.08 59.28 l4.08 -15.3 l20.46 -15.24 l2.16 0 l2.22 0 l4.44 0 l8.1 0 l8.28 0 l-2.28 8.34 l-1.8 6.9 l-0.9 3.24 l-0.96 3.72 l-1.14 4.14 l-1.14 4.2 l-8.28 0 l1.14 -4.2 l1.14 -4.14 l0.54 -2.1 l3.12 -11.76 l-10.26 0 l-2.28 0 l-2.22 0 l-12.72 9.54 l-3.42 12.66 l-8.28 0 z M17.76 50.94 l-2.28 8.34 l8.34 0 l2.28 -8.34 l-8.34 0 z"/></g><g id="SvgjsG4486" featurekey="nameFeature-0" transform="matrix(0.784613847732544,0,0,0.784613847732544,61.53998133944062,160.06589354017083)" fill="#111111"><path d="M22.539 40 l-2.0508 -5.8203 l-11.855 0 l-2.0508 5.8203 l-5.9961 0 l10.391 -28.223 l7.168 0 l10.391 28.223 l-5.9961 0 z M10.352 29.277 l8.418 0 l-4.1992 -11.973 z M48.994578125000004 40.39063 c-6.1914 0 -11.035 -3.1641 -11.035 -10.273 l0 -18.34 l5.8594 0 l0 17.539 c0 4.2969 2.2852 5.8984 5.1758 5.8984 c2.9102 0 5.2148 -1.6211 5.2148 -5.8984 l0 -17.539 l5.8594 0 l0 18.34 c0 7.1094 -4.8633 10.273 -11.074 10.273 z M88.92625 11.777000000000001 l0 5.1563 l-6.6992 0 l0 23.066 l-5.8008 0 l0 -23.066 l-6.7383 0 l0 -5.1563 l19.238 0 z M111.630515625 40.39063 c-8.3008 0 -14.434 -5.6641 -14.434 -14.512 c0 -8.8672 6.1328 -14.492 14.434 -14.492 c8.2813 0 14.414 5.625 14.414 14.492 c0 8.8477 -6.1328 14.512 -14.414 14.512 z M111.630515625 35.0195 c4.8633 0 8.5938 -3.418 8.5938 -9.1406 c0 -5.7031 -3.7305 -9.1016 -8.5938 -9.1016 s-8.5938 3.3984 -8.5938 9.1016 c0 5.7227 3.7305 9.1406 8.5938 9.1406 z M168.271796875 40 l-7.3438 -12.422 l-1.6992 0 l0 12.422 l-5.8594 0 l0 -28.223 l10.234 0 c6.3867 0 9.082 3.7695 9.082 8.4375 c0 3.7891 -2.1484 6.25 -5.9766 7.0703 l8.4961 12.715 l-6.9336 0 z M159.228496875 16.641 l0 6.7383 l3.457 0 c3.125 0 4.3945 -1.3281 4.3945 -3.3594 c0 -2.0117 -1.2695 -3.3789 -4.3945 -3.3789 l-3.457 0 z M185.27339375 40 l0 -28.223 l5.8594 0 l0 28.223 l-5.8594 0 z M204.189409375 40 l0 -28.223 l10.215 0 c9.0039 0 13.457 5.6641 13.457 14.102 c0 8.457 -4.4531 14.121 -13.457 14.121 l-10.215 0 z M210.048809375 34.8242 l4.0625 0 c5.1953 0 7.5781 -3.2422 7.5781 -8.9453 s-2.3828 -8.9453 -7.5781 -8.9453 l-4.0625 0 l0 17.891 z M255.48875 16.934 l-10.469 0 l0 6.4063 l9.2773 0 l0 5.0977 l-9.2773 0 l0 6.3867 l10.469 0 l0 5.1758 l-16.367 0 l0 -28.223 l16.367 0 l0 5.1563 z"/></g></svg>